<mxfile host="app.diagrams.net" modified="2022-03-02T13:35:06.729Z" agent="5.0 (Macintosh)" etag="yQ-HS4aRj49ckYrJbXIP" version="16.6.4" type="github">
  <diagram id="-lJbhTezz8nB4rL2aGxY" name="Page-1">
    <mxGraphModel dx="1234" dy="819" grid="1" gridSize="10" guides="1" tooltips="1" connect="1" arrows="1" fold="1" page="1" pageScale="1" pageWidth="827" pageHeight="1169" math="0" shadow="0">
      <root>
        <mxCell id="0" />
        <mxCell id="1" parent="0" />
        <mxCell id="yfILQE2IZRb-2GOEsFmR-1" value="" style="ellipse;whiteSpace=wrap;html=1;" vertex="1" parent="1">
          <mxGeometry x="240" y="240" width="40" height="40" as="geometry" />
        </mxCell>
        <mxCell id="yfILQE2IZRb-2GOEsFmR-2" value="" style="ellipse;whiteSpace=wrap;html=1;" vertex="1" parent="1">
          <mxGeometry x="440" y="270" width="40" height="40" as="geometry" />
        </mxCell>
        <mxCell id="yfILQE2IZRb-2GOEsFmR-3" value="" style="ellipse;whiteSpace=wrap;html=1;" vertex="1" parent="1">
          <mxGeometry x="280" y="350" width="50" height="50" as="geometry" />
        </mxCell>
        <mxCell id="yfILQE2IZRb-2GOEsFmR-5" value="" style="endArrow=none;dashed=1;html=1;rounded=0;" edge="1" parent="1">
          <mxGeometry width="50" height="50" relative="1" as="geometry">
            <mxPoint x="200" y="320" as="sourcePoint" />
            <mxPoint x="520" y="320" as="targetPoint" />
          </mxGeometry>
        </mxCell>
        <mxCell id="yfILQE2IZRb-2GOEsFmR-6" value="" style="endArrow=none;dashed=1;html=1;rounded=0;" edge="1" parent="1">
          <mxGeometry width="50" height="50" relative="1" as="geometry">
            <mxPoint x="360" y="440" as="sourcePoint" />
            <mxPoint x="360" y="200" as="targetPoint" />
          </mxGeometry>
        </mxCell>
        <mxCell id="yfILQE2IZRb-2GOEsFmR-7" value="" style="endArrow=classic;html=1;rounded=0;" edge="1" parent="1" target="yfILQE2IZRb-2GOEsFmR-2">
          <mxGeometry width="50" height="50" relative="1" as="geometry">
            <mxPoint x="360" y="320" as="sourcePoint" />
            <mxPoint x="440" y="380" as="targetPoint" />
          </mxGeometry>
        </mxCell>
        <mxCell id="yfILQE2IZRb-2GOEsFmR-8" value="" style="endArrow=classic;html=1;rounded=0;" edge="1" parent="1" target="yfILQE2IZRb-2GOEsFmR-1">
          <mxGeometry width="50" height="50" relative="1" as="geometry">
            <mxPoint x="360" y="320" as="sourcePoint" />
            <mxPoint x="450.8434742955769" y="305.746957711327" as="targetPoint" />
          </mxGeometry>
        </mxCell>
        <mxCell id="yfILQE2IZRb-2GOEsFmR-9" value="" style="endArrow=classic;html=1;rounded=0;entryX=1;entryY=0;entryDx=0;entryDy=0;" edge="1" parent="1" target="yfILQE2IZRb-2GOEsFmR-3">
          <mxGeometry width="50" height="50" relative="1" as="geometry">
            <mxPoint x="360" y="320" as="sourcePoint" />
            <mxPoint x="284.14213562373106" y="284.14213562373106" as="targetPoint" />
          </mxGeometry>
        </mxCell>
        <mxCell id="yfILQE2IZRb-2GOEsFmR-10" value="p1" style="text;html=1;strokeColor=none;fillColor=none;align=center;verticalAlign=middle;whiteSpace=wrap;rounded=0;" vertex="1" parent="1">
          <mxGeometry x="300" y="275" width="60" height="30" as="geometry" />
        </mxCell>
        <mxCell id="yfILQE2IZRb-2GOEsFmR-11" value="p2" style="text;html=1;strokeColor=none;fillColor=none;align=center;verticalAlign=middle;whiteSpace=wrap;rounded=0;" vertex="1" parent="1">
          <mxGeometry x="360" y="280" width="60" height="30" as="geometry" />
        </mxCell>
        <mxCell id="yfILQE2IZRb-2GOEsFmR-12" value="p3" style="text;html=1;strokeColor=none;fillColor=none;align=center;verticalAlign=middle;whiteSpace=wrap;rounded=0;" vertex="1" parent="1">
          <mxGeometry x="320" y="330" width="60" height="30" as="geometry" />
        </mxCell>
      </root>
    </mxGraphModel>
  </diagram>
</mxfile>
